<mxfile host="65bd71144e">
    <diagram id="gZAfqJUqFe6VeOHrL8GT" name="Page-1">
        <mxGraphModel dx="1109" dy="588" grid="1" gridSize="10" guides="1" tooltips="1" connect="1" arrows="1" fold="1" page="1" pageScale="1" pageWidth="850" pageHeight="1100" math="0" shadow="0">
            <root>
                <mxCell id="0"/>
                <mxCell id="1" parent="0"/>
                <mxCell id="2" value="" style="strokeWidth=1;shadow=0;dashed=0;align=center;html=1;shape=mxgraph.mockup.containers.browserWindow;rSize=0;strokeColor=#666666;strokeColor2=#008cff;strokeColor3=#c4c4c4;mainText=,;recursiveResize=0;" parent="1" vertex="1">
                    <mxGeometry x="10" y="70" width="830" height="500" as="geometry"/>
                </mxCell>
                <mxCell id="3" value="Profile Page" style="strokeWidth=1;shadow=0;dashed=0;align=center;html=1;shape=mxgraph.mockup.containers.anchor;fontSize=17;fontColor=#666666;align=left;" parent="2" vertex="1">
                    <mxGeometry x="60" y="15" width="170" height="26" as="geometry"/>
                </mxCell>
                <mxCell id="4" value="https://www.ottawastem.com/sam" style="strokeWidth=1;shadow=0;dashed=0;align=center;html=1;shape=mxgraph.mockup.containers.anchor;rSize=0;fontSize=17;fontColor=#666666;align=left;" parent="2" vertex="1">
                    <mxGeometry x="130" y="60" width="250" height="26" as="geometry"/>
                </mxCell>
                <mxCell id="5" value="" style="verticalLabelPosition=bottom;shadow=0;dashed=0;align=center;html=1;verticalAlign=top;strokeWidth=1;shape=mxgraph.mockup.containers.userMale;strokeColor=#666666;strokeColor2=#008cff;" parent="2" vertex="1">
                    <mxGeometry x="10" y="130" width="260" height="260" as="geometry"/>
                </mxCell>
                <mxCell id="11" value="&lt;font style=&quot;font-size: 18px&quot; face=&quot;Comic Sans MS&quot;&gt;Age: 13&amp;nbsp;&lt;br&gt;School: St.Mark High School&lt;/font&gt;" style="rounded=0;whiteSpace=wrap;html=1;" parent="2" vertex="1">
                    <mxGeometry x="10" y="410" width="260" height="70" as="geometry"/>
                </mxCell>
                <mxCell id="13" value="&lt;font style=&quot;font-size: 36px&quot; face=&quot;Comic Sans MS&quot;&gt;Sam Liu&lt;/font&gt;" style="rounded=1;whiteSpace=wrap;html=1;" parent="2" vertex="1">
                    <mxGeometry x="280" y="120" width="530" height="60" as="geometry"/>
                </mxCell>
                <mxCell id="14" value="&lt;font style=&quot;font-size: 18px&quot; face=&quot;Comic Sans MS&quot;&gt;Interests: Play video games &lt;br&gt;&lt;/font&gt;&lt;font face=&quot;Comic Sans MS&quot;&gt;&lt;span style=&quot;font-size: 18px&quot;&gt;ðŸŽ®, watch Youtube, car photographer on Instagram and Facebook ðŸ“·:&lt;br&gt;&lt;/span&gt;&lt;br&gt;&lt;span style=&quot;font-size: 18px&quot;&gt;&amp;nbsp;&lt;/span&gt;&lt;br&gt;&lt;/font&gt;, achievements, and other stuff" style="rounded=0;whiteSpace=wrap;html=1;" parent="2" vertex="1">
                    <mxGeometry x="280" y="190" width="530" height="300" as="geometry"/>
                </mxCell>
                <mxCell id="15" value="" style="shape=image;verticalLabelPosition=bottom;labelBackgroundColor=#ffffff;verticalAlign=top;aspect=fixed;imageAspect=0;image=data:image/png,iVBORw0KGgoAAAANSUhEUgAAADQAAAA0CAYAAADFeBvrAAALNUlEQVRoBe1Z+V9U9Rru37otttyyzaxut2zVunmt7Obt3hbNLO2qoLiAgiiIApGKKKKkIRgaKiouLOIGKJvIOud79mVmoOd+nncaHQlREf1Un344nzkzZ86c7/N93vd5n/ed+4JwBH+k474/Ehhi+RPQb53RPxn6wzPkBxF0qwAN7R5qWjzUtnlo7w/Az28Entd0O0Bjp4djLR5OXvLQ2uvDcMI3vOdGvzX88zsKuStagJKTDuZuMzF9g46p2Tr+kaPj400GNlZZ6BgI4PjXAwtZYfx0zsWCEhMzcmPf5z0fFRhIr7DQ0OHB9ccObMyAyMr6AxamrFGYkKThLws1PJKs4aV0hZczNExK1bDkewsXewK4v4DqN8LYU+/gnfU6Hlqs4eEkTYB9Vmjg2ZUKTy/XMHurIUyPxvBwVhLfjwkQH7atxsGLqxXuX6QJIJ7PK7awq9ZFeoWBh5I0PLZUIXu/BTJpe2EcbnLx9npdwD+4WMN/Nulo64/gQncEaeW2bMbEZRo+3WIIu4kLvdXz2wbkhyPoNwNMy9Zlh59eoTAj18DWYy46QlFZ4OoKUwCRtdcyFY40ebgcCrCizMIDizRhh583dgZwgyG09kdwriuMgsMOXl+r4+UMhR0nnDHl020D8vwIjjS7mJSqMDFFw8oySxbjhYegnCGsq7TxwKKQsEBAZIJsMvnfz9MF0IurFH6odxGO/gzNjmJ+sYG1lbHfKa31MCVDw5wi494AYpIXH3fx1HKFf27UcbItQH1HgCPNHgiqoTOMiSkh3L8wllcExbDbedLGq5kKZDTzRwuDQz+j3xpErxFFzUUP/92k8HmhjhU/mJi0MoSpWereAGKC765zZGFM7LgAvJero64tgOENIaPCuhpyBETFK6uz8eY6hXdydHRpEUQGf0Z6uYlp2QrljR5OtXqYXRgTC4rM9A33CJAXRHCm08fzq5SEFXOCx1+XavhmhwHbH8QVFcUra5SEGz8vrXVwusPHJ1sM+d6crYbkTZcWxfwdJt5YpzAzT8NzqbFQfWIZFdK8NwxRbUw3jNlbdTy29FpYUe2YzBWNLpxgCEmlJh5douGDPB37Gl2cvewLUwTIg0Jy6IKPlt4I0vZaeGFVTCzI6CsZOg43eXcHEKt3S0+AqnMOyuttVDTY4gr2n3WlnjycfA0U69A76xVW7rUF3KuZOjb8ZAkL87YbKDxq48vthsg8w3VatoHCYy4W7tTx5PLY70xOU1izj/XLl9zaU2ej9JSDwxdccSCU/9EkfFSVo4WhQs3eakqSvrpGiQx/mK8jrdxC1n4LHxXoonhUM+4uFzo5TcP7uTq21zjCCovtEykKyd+bOHHJw8KdJqh0vIfXnlqugfWHTmNVOQXEQcpuE8zLRbtMfF1sCNMMz7IGBz0quCGoGwJi3VhbaeNvq1Ws3izX8HzaNVfAcPu80MC2Ghs5Byx8XWxiVoGOdzfosgAy2G8EmLvNkNAj2FkFBpqu+Gju9kXpuOCZ+bq4A9aoPXWOsPFBvoHHl8Y25djFAAcv+CL5j6dokm98Jl3HSEyNCIhKtuWILU6AYfRWlo51lRbyDpp4dkUIDyfFZJlqxJ1s6/PRp/uoPGNjbpGBpbtNFB2zceiCK4WSYHhQtouP2yird7C63MIXRQbyDlpo7/fFv1FsPtkcE4738wycaovZpsHBIRQedcROMVffzNLFD7LIDwc1IiBaFZpNhgTrQVm9i249iuomD1PXhTAzl2zFLM/f02PXec/qclMULw6AhZchSODxgztPVYx/54N8Hc2/+L3vqm0J138VGDjdGYbuRNHcEYKyI1J8n0vVQJaeSNFApbTcX7M0IqDqZg+vrNHxaHIIG6tsSc45hRrSyw10q4gUxdo2H69nKjy4KISsSgumExbAz6Wq64rqhMUa3s3R8N5G5pEm3i8Ohn6v4LCNPiMsebFkt4lPtpho6g5jwIwis0KhYyCMPbWObOyinYYIxutrlVgvthy3xBAL5wurFF5O1/DjGQ+doTAOX3CkxvToEXkgXcFXxbH8WLrbwoAZhmaFUVrrSvzTKZCdgkMWukKBXC89xZyM1RqCSdtrolcPS+/U0uNj4U4DGftsnL8SIHmXwqZqCwOGj7wqE/XtPmx/SLxfRaMvxvb4pV9L+4gMVZ51RX0YHmRId6PoN6NST6ZlKSwo1tFnRPHpFhrUkCgTaxOLbo8KY8MBS0KMdajmoi+f06HXtbqYnhNrM5grDFPew13uGPCxYIchLcTULE2skLIHER0cAjfx+EUXrT0uHD8qm0yrdKbzFgE1dfsiBIx1MvXxdwpzCnV8U6Jj61EL9e2BgKMbeGaFJgnLBbNmHW3xwJDgvROSQig/7ULZYWkfWMumZITk2qSVCtuPO3KNgLghNKiPJIckNMm66Q6i6ryP1DIDJy75EoYVp128m6OkXFBFbynkmA+s9E8ui+XDg4tDeCldE4Xq6A9Qdd7DjFwlcvzvAkPCgcpIN/Dht8bVpKcisc2gojHP6LYfWxITBALmhlSdc6HbYVCx2Mm+laXEB7K/ml9simHd2+DishaRcGZ3SyHKP2SDzv+WAPFL9e0e2Ek+nhLzbE8uYzepI2WPKTvEcGJXmlVpymyAQKlS7ELjSc/FUyl5LwsnS8CjyderHOsXC3ifHuBos4vkUkO+z9+YsDiEuUU6WnrDKDlBYdBBJ8HNvtT7a3a47hFziBfY19PWf1NiYkpmzJqwmNKHscByBvBlkcKsAoUFJQayD1hI2W3g7fVKKvxnWwws22PKAuIAuRgq1bztJmbmG1KE/1digAywONNtz/pWYd42Jdco0zM2KuRWWfJKZ87+68xlXxgdzs6ogHiRYdA5EKC8wZE+hQ+nFdlUbYOqlH/QEvGgotEhMwy/q7ZwqtUVGWYo0T1Q7QiKDuB8lwfNCnD+io+D511srrbwdraSUCSbbNErTjuoa/OQvd/Egh06FhRrUuP4/dFsz00BjbQDiZ+19gXC4MRlMRGgFL+xVqG6yZUk54bQYXAAQlDMCYKhstG6bK+xQXFgrhEMbVbuQRsDIyR74nNHO79hyI12U+I15k5qmSk5QhaY7M+volzHQNW1s/U2xPbsOuUI6wTDLpZ5SHYJaHKqwuYjzh3P5u4YEOWa9SR9nyW7HAfF/oZMMewoMOxIec4CTGYe+QUMv//sytjcgYU5cbPGcn7HgPhQyid7psWl17wcmXptrRJhidchKhnNKcOMQHjQmzEnmRvcnLGASLxnXADxB20vgsZOWhLj6mKZN2wROOrl7pefdmQwyRCLM8mhCMM27hgSFzeW83EDxIfTKbBlmJx6zYQyT9ig0YRy9BtXPDJIsOe6fDjenTMTBz+ugPijTPiMhEEjmeDoil0sCyvfkyEqI7vP8RjQx8HwddwB0QKxRtG6UIoJYPjBOQTrEwf345E3dxUQf9xyI9IK0FkMB8P3HFKyjR7+z0TiwsZ6Pu4McSFkaW+9g2dWXFOzRGBkr7XXG3d2+Oy7AoiKdfayd52PiwNiGNKTjZWBm913VwAxL5q7g6vT1TgYvtKBf1Gk/74AkSGOq+jKE8HwnLI9Ped3xhBziJPOREcQB0bvxlkFXcNIY6ibhdTNrt+VkKNr4FSV09I4kMRXum92qgR+swXe7vVxB8T86TMC+fOYs7hEIPFzNon8d2GkudrtAhj+/XEHxEXS/sRnB3EQia9UupdWc+YWmwgNX9SdvB93QHTWm49YMo6K/3Uy0ivD7uQlV6ZBdwJg+L3jDoh/dzS0u0japWN+8cgH22rOH7pCvwOGhu/YvX4/7gzdawDDn/cnoOE78lt7/3+Nh1tZ5TBydQAAAABJRU5ErkJggg==;" parent="2" vertex="1">
                    <mxGeometry x="35" y="16" width="20" height="20" as="geometry"/>
                </mxCell>
                <mxCell id="16" value="" style="shape=image;verticalLabelPosition=bottom;labelBackgroundColor=#ffffff;verticalAlign=top;aspect=fixed;imageAspect=0;image=data:image/png,iVBORw0KGgoAAAANSUhEUgAAAMMAAABPCAYAAABWDXEJAAAa30lEQVR4Ae2c93/UVdbH81c8TbGQhBQIoS5FIpAooJQUElKQqrDWZ+0urKuyq+va1oasZcWCUqWk92QmvfeeTC9JUFiSdenk/bzud+Y7mUwmia4zCc/zfH84rxlmJqPnznnf8zn33Ht9zvafRTFlDJQYOIuPMggKCEoM2GLAp7+vH8WUMVBioF/JDMqsqGRGOQYUmaTUTErNaI8BRSYpMlGRyfYY8Onr7UMxZQyUGOhDgUGZDJTJ0B4DikxSZJIikxSZpEgjRRqNjAGfXmsviiljoMRAr1IzKLPjyNnx//N4KJlByYyKMrDHgAKDAoMCgwKDUicodcLIGFAyg5IZlMygZIaRs4IySyrjoWQGJTMomUHODFaLFcWUMVBiwIrPlA6CwYi1oxNrdTWWggIsqSlYTp7AfPQw5kNf2ezbbzAfP4rlzGks2VlYS0qwNjVj1Wj/10FsMfRg6anH0l6IpSkFc90RzNUHMVV9gqnygM2q/oa59hCWhu+wtGZj6arAomvHajL+r/LXYDbQrm+nrKeCjPYcjjWf5MvGb/mk/iAf1n0q2YG6v/G3hq/4pukYZ1rTKOhUU69toMeomRJfJx8GswWryYxVp8fa3Iw1Lw/rwc+x/uEVrI/sxrJ5E+ao+zGtXimZed29mOMise7civX5Z7C++w7Wkyexlldg1WiwCqDEd96sGc5sxmoyYDX0YG4vxlxzCIv6ZSyZOzGfuh/j0V9h/CYYwyE/jMIOz8F0YgWWlFgseU9hKf8Ac1MGFk0DVqMOq9mE1XJz+muxWDCZTWhNOimoU9syeKdmP48VP8v6nASWpK8iKGUx006HSOZ7Zj5zUsOIyIpkS+GvebHiVb5qPIy6q4QeYw8GkwGzGL9J+m0nHwadHktDA5ZjRzG/ug/jg1v5YVsiP26N5/IDcVzevJHLSTFcSoiS7HJiNJeTNnJ5cywXt2xiYFsCvds3Y3r2SSwH9mMpyMfa3jFpA/ZzfxiLrg1zcybm4tcxpm3GeupuLqQt4J8Zc7mcGcqlrBAuZc3kUnawzbJmcTlrNpcz5zCYPo+zyUswnFyFKe9pzNVfYumutUExSQHyc/zVGnVU99Tyt/qveLz4OZZnrmdB3ipCVOHMLF5BYEkY/qXL8C1dKplf6V3MKFlGUPFyZqlXElp4D0uy72NT/k5erXyL9LZsWvVtk/bbTi4MLS1YsrMx7f+Asy88w/ntSZyPXM0/Y9dyLSEKHoiFrZtgezzsSLDZ9gTYFg9b4riRFMOVTesZiL6P8wnRnHt0F9Y//RHzkcOS1LJqbyLpZNRg6SzHVPUZlvwn+SHjfs6dmcOF5OlczprO9bwZUBgM6llQFAJFs22mDoHCmQzlB3I1x48f06Zz7pQv51LD6M/ZirHoNcxNqVi0TZMWJD8FiEZdE6dbU3m5/HXiix5iYcFqbsmdy63qBdxevhjf6mX4195NQN0KAutXSiaez6hdjl9NGHdWLmVa6UJuKZhHUF4Y96g28njJ83xcf5DSngo0Ru//tpMDg5BFWh3W9DQsr+7DvGENg1FruC4A2JkIDybBQ5vhwZ9g0ueSGNoSy9WNazm7bhWWR3bZpFZNDVaDYeqDRMiirnIs5e9hSl5P/zF/rqRP50ZBEEMls6E0lKGSOROa+BwloQwVz+Zatj8Dp30xHp6FOf9JLI0nsYoAmUQZ4Q4KIWM0Ji3HWk7xaPGz+CYv4NbcedxWvpiAhpUENYYT3Bgx0hoiCJbN+b2mCAIbw5levYxb1POZlj6HNblxvFO7n/KeSkk2uft/8NRrPhazBa9bSyuWE8f5/nfPM/BAHJfiI7n+QCxDYvYXIMgQ7EyC8Uz+nHjcmcjQtniuJkbzY1IM5x/cQu/+97GoCr3vzwRjZm7NwVqyj3OpS/kxfRZXcgIZUs+UgnoEBMVzGBrPHMCEMlQUwrX8YC5lBHIhdQ5n87bZ6g9t85T6KzLCwYZDJJTsJrhgOdOLFuNXtYyA+hXDIDREEFQfPq7JcAQ1RhDYsFLKGNNLlzJDtYyFBffx+6rXye7I86qv3oehuQVrSjJn9zzH4LYErm5aD1vj7BnBKROMB4Hze85AiOfb47meFM2luHWcf2wXfQc+xFJVhUWj9erAuZ1ADBrMnWX0lv6Bc5mruZhul0NCCokZXgS3FPxithcBLmyOG7O/Lz4jzA4FxbMZKgzmStZ0BjIW0p+7FUvDUSyapsn31WyhQdvEN83HiS/exWx1BLeWLMS/5m5JAknZQMz+9RODIIMiPitBYc8WQkbdUbFEklor1Rt5ueYNSruFZNJ4xV/vwWAyYzEYMWdm0PfaPgaj7uNqfCSIGsA5oJ0DXXqeaANFyKcR5iZryN8jssTWOC5GreHcY7swH/wcS30DFqPJK4PmFgSTCXN3DaayD/ghYxUXU6YxpBLZYDiYZRAc9YGoE9Sh7k2uIQQwAiBHlpgj1RhXs/0YOH0HvQW/wdR4BovJiMVsnhR/hTQymox815LMw6XP8h+5oUwr+5VUDzggkLNBXThBP8fsGUSGQmQJUVP8W2Eo4apY3qs5QI2mDpPJ87+tj9lkxium1WFuaMD45uv0JcVKIIiAlWSQI4idAzwRdkxgDjic/k7+rh2J3EiKZiAhGuND2zClJGNub/eOb27GzKRpxVh7GP3JNQykzpYKZKH1HUFszwgUjRH8Y0IRivibEUAUh3KjMJirWf70nlyEIX8Ppq5azAbtpPirMWilVaNnSl5kbtZKbi9ZJAVsUEO4oxaQZntnCGojCBrPnD/rDERDhJRpRIYILAjj3sxoDjedoFWs0rn5HX7Ja96DoaUF07Gj9P3mMQai1kgztxTscvCOyAjOENhXkeTVJMej/TPjAbE9nkubNvB9zFosf3kLU2GBxwdsrME2NWdhVu3l7IlgLmUGSKtEE4KgCoWxzBkOKUuMlEwCNAHEhVO+9KZvxFj1BWZN06T426Bp4rO6L1lXmMS03Pn4V9ulkb0oHg1COEG14QTVCItwY/b3xwFCSKY7ixfjn7mYF8pfIbMtx+O+egcGIY9KSjDteZ6BbYlcF/JozELZGQTxXMAgllZdTbw+ARAPbebGlliuxG2g/5GHMH15ELPegNlo8vjADUNhwmzQS/KoL3Utl9P9pFUjx4qRIyO4SCIZgsJQcGfifbdAOEsmscrkx4W0xRgzf42pTY3ZaPSir2YMRiP5HSq2FzzC3MJ7mVa2aHSh7BzUUjYQEKwksDrcrYn3JFDEZ53/1jlDNEZIy7O3qRexKi+W92sOoDfqJbk0/Fv8MpXjYzKa8Li1tmL67jjGuCgGN21gSPQNJswIItDjbTWFqCtc7admiB2JXN8SS3/kGkz7XsJUW4tJo/W8j/K46TWYOqowZj1K3/FAacVnqMgujxwguAS2MwgFoeBqMhyjgHCVTKHcUM9iIDUIw5FfYaz+GlNPi/d8NZpo1rTwef0hZieHMV21GP+65bZlU3c1ggMEGYKVBFatGG3VdhgEFCKDuAOiMYKA+pX4Vi3jzvQFPKx+msruajRi/OXf4hc+egeGkhIs+9/n7IZVkmxxZIUJpdE4MAg4JgLCDtyN7QlcWHcPfU8/gSk1BVNbu8cGbNTAa1ow1h7Hmh7D309O40ZRCEOOlSNb8I6Y4ScCQQZjTCBEc85ZMoVyMdOf/mN+mItexdiq8p6vRhMFHSpeqnidaWlzpVpB7iOMJ40Cq0VWGAMECQ7b+8MZYjQQoqAWy64z6pbzb9khRBVu5VjTSVq1rR7z1zswpCTT99JeqbN8fXPMcEPNAcMY0sg1G7j7tySfxpBMdhiGdiZyZeNazj/yIKYD+zHV13tswEbB0FWNseh1zmVEcDn99uFeQrEAYRxpJAe9eMyfPWzOr48HhH2VSsixa3kz+DHFF2vubox1x73nq9HEkcYT7Ch+gmkFC6Susbx6NAIGR0aQpdF4IMiZwvbZYSBGSiZp2dXeg/jPonmsUMfwWsXb1PTUesxf78Dw9Zf0P7aLa/FRDG2Js0kkBwhJw9pfqgEmyAZugZCzhHMNYV9hEkDsTGIoIYrBHZsx/X4PpsoKjw3YKBjaSzBkPcJA+lJu5PgPL6W6wjAqIzgB4AyD83MBhjsgHAW1vX4oDOJq5gz60iIxVnzsPV+NJj6o+YQ1+fFSMSuWPAUM7kGYQBq5k0vitbEkU71tpUqsWIntHQtVa9hd+BtKOss85q9XYDD+dT/9W+OlvUTSviJ7gNq6y3JWkAPaFQbxb3fmUkeMkkxOy60CvAdi+ccDcRgf/zXGkmKPDZgrDMbWAvRnYhlMmw8FgTYYpFpB9AOcagUBgwhseeZ3DvqxnsufdQuE03KrahbXc4LoPX03huI3vear8P3VirdZlL0a3/K7pC6xJF9EoSvrfJEVagQIE0kjOSO4PsqSSaww2ZdjxXeL/0aDzUTdEKJaSVT2Zgra1R7z18doMOJpM7z7Nn2x67m+eaOtEHbAYG+kSRlBwOAKgn1T3rZN4GoSIK5AyBv65AadExBbNzGYEIVhexJGlcrjPspjZmjORnc8gsHU2SCabHKXuWjO8GqQKwgiyMcCwPl1GQbxKIAQ3yOvMDn3HopCuJ4XjPX4XPSFr3jNV+HzntJ9BGcsxa/StuXCHQyBMgwus39A5XLc2eiiWpZM7mGQNvwV3sXy9HVkt+V7zF/vwCAabetXS/uPHL0FSSZNEgwCvu3xDMatxxAfg7GgwGMDJkMgPxqaMtAdWcxgahCoRfFs33IxHgzOAf9Tnk8Iw2yu58/EejQQff4er/kqfH66+HfcmS56C2G2bReuq0i1EXgNBrtUEj0H38LFLEgJJ7M1x2P+egeGP79G39p7pSXOKYUhdh2GuCgM+Z6bPWQI5EdDYzq6wwsYTA2UtklMCQzFs7leIGDwR5/3vMeCQ/bR+fHJoj3cljZ3ymGYXriIuSnLyWjN9pi/Pga9AY/bG3+ib/2qmwAGkRmiJRg87qM8bhIMi6Y2MzhgCECf91vP/56yr3oDTxXt5Y70eVMOg8gM81NWSjB46rf1Dgx/eYu+jettMkmsBk1VzRAfhWFbEobCQu8FSFMWumPhDKaG3AQ1wxz0BS97z1e9gd+W7CPoJqkZ7k5bS1Zrnsf89Q4MH31I/wObuJ4UYzul5oBBFLiuq0kuRbEolMXJNldzXWL9CatJg5tjMTy6G0NRkccGbNQs1JyH/nQMg2nzQBzekbZd2+qGSV9NOhWGvujP3vNVb+APZW+yMPte22qS6D67qRnGW02auID+CatJ1cuYVbiC9VmJ5LV5bqLzDgxffE7/ww9KRzm902dwWkVy7FeS+wy2x6HEaAbFStLe5zGUlXkvQFrV6DN2M5C+hKHcn9Fn+DmFs7ySJK8mjeozBHMtM4De1HXoyz7ynq96A+9WHeDevFjuLFki7VQdu89gWxEav/Psuqxq6zOIAlxqvomtGWJ51b60KoHXEM4d5UtYoFrNzvzHUYs+j5OM+yXPffQ6PZ42w6mT9P7uBS7GrmPKOtCxazn/8E6MH7yHoabG4z46xqy9AkPhq5zLCOdyxhR3oHMewlB9xHu+6vQcqj/KVvWjtg501VL3+5KkIJY359lm+tHLp64gyMup7jftOXeg/6t4PstV0ewr+zOVnVUe89c7MKhUmN//C99vWM2l+A3DO1adu9AOuSRkk9yAc5VMLv92fM658yyWa+WsYDs5d2NHAgPr76H3yccwnDqFvrnZYwPmgECeRLoa0VcdxpoWxYVTv2BvkpQpnJpy7hptoscgGnlu9iadPeaHUfUK+qY87/mq05Pdmsfesj9ya/pcbi8d3rE6ogstZnIHED+lAeckjURWcLNZT8oK0t6kFfx7TggbCh7gm/qjNHY3ecxfr8Cgb2xEf/Qwxph10lr/kFxEi23ccuDK5xJkmSMFupsmnFwruO5JEn8nfYfTd0q1idi1Gkf/+lUYXtqLvrISfWeXxwZsFAw9nehaS9Fn7KLvmD/XCpzOOhfPAddtGSKghdxx14iTm2zOIMjSyAHCbKeDPvKu1UAM385FV/E5us567/mq01PXVc/HNQcJOr2EO1WLmFG3wrYlQ3SHnTvREhCiaSZnCDsULo04KWOIbrU7aSR3nkV/wb4vya8qTFrafbDgvylpL6NT0+kxf310Wh0et+4e9IUFGJ57igtb4m23YEzaeYY4rmzaQO+uHeg/+wRdVzc6jdbzPjrGTYuupwt90dv0Jq+2nWcoDBq+AcOxjXucTXty8Ds/OkMggSDvVh19nuHvqYvQp+1A15SDTtPjRV919Gh6yGzJISn3IUILIqRbMOSdq6OK6REZwi6X3JxpGGtzngSXvdEmYPCtDuO2okWE50bxVsX7dGm60Go999t6BwYRKHV16L/6kr7Hfy1dC2M78imuhbFfAuDIEGJml1eYXCSTQxYJGTWGNBLfI3/n9gQux0fyQ/RaTH9+DX1WllcDY8QkUpeMMe8Zzp4ItJ10K5o18ZFPOUO4exQAyDZKGonVKvtJt9O+WNMi0ZX+FV17zaT4W91Rw4eVH0sb9m7Nmzd8CcC/dNJNZA730kjAIAATJl0OULwY38xFPFm8lzONqR731XswdHSiq6xC/+o+euMiuZYQyZC4IEwOXlcYRgDhDIfLc3fSyC6PbmyOYWBTJPotiehOnEDX2OTxARsBgCM76NB11KOt+BLtsZVcSJnJjbyA4R2s9i0abiWTHPBjPUog2KWRyDLSxQCh0mUD4gy09cRctNlPo20pQ9fdOSn+dvR0UtpWzmOq5wjOWMbtpYslIOQz0NKGOreS6SeegxZ/6wSCuBRAXDLmn7+UZWn380XtN9R3NnjcV+/BIKRJVzf606ewvPw7/hF9nwSEVCzLM7kUxE6aXwJErgVcH10/55QR7LdjXIq+jx8e3on+rx+hq6hA16Px+ICNCYOQJ60l6NRv8H16BBdTvXk7xmzE7RiDp+/AnPswuuojklTTeVAyjOmnVidJky5Nt1TA7ih6gv/IncNtZYuku5KEnJFn81E1hJBNE5kzCHKdYL8dY3lhFH8qf0eqFYRcG+//8V95z0er0eJN09XUYDx+lP5nfsPg1niuitUlKUM4SSa3ULgJfjmrOMO0PUFq7l2KW8+53TuwvPs2OrUaXVu7V/1yO2ZdrWib8jGr9vBD+kouZfhyPS/Adn2k4/SbkDj2k2piVejn3pukmsnVbF8G0ufTm7kJQ9UXaNsqJ99XjZaKjio+rfuKSNVWZqpXMq30V8OSSYbiX7k3SUgjccxTXAJQuZRbixayrHADL5TvI6+1gNbuNq/463UYRNDoamvRf/01/c8+yWBCNFfEjXpbxI16PxMIlyJcnK2+lhTNPxOiOL8lHvPbb6DLyvLKQLkN/jEmEl1dCqaC33IueT4/pgdxNVfcqDdr+BScJHXsu1vtZx9sdyq5vCZ/ToAktmkXBHM5M4CBlJn0ZcWjK/sUbXvNlPpb2VHNR1WfEqnahn/+XdxZvMSxb0kc05QzhVwMj/koXzMjZYNw6Xinb/lSfFVLCckL57nSl0huTPOqr5MCg7arG21zM4bjxzH9fi/m9asl2XQj8RfetRq7ju/Xr8K8ewfGjz5Er1ajnYqM4ApFVxu6plwM6tcwnl7D2eN+XM0Qd60GS+ejHTdnOIJdrgVGPjrftXo9ZwYDZ3wxHZmJMeth9FVfoe1sQtvT7dUAmWgS6OrpprGric9rv2aH6nGmJ89HFNXiNJrbu1btBbEspSRYZGjsd62KS4pvLVrAtPS5RGRHs6/8TXJa8mnr9m6299H0aJgs01ZVozt9Cp047/DUE5zfmsDfo9ZwMW4d1xOjpZu2bbdwuzTh5Fu4N2/kakIkgzH3cz4+inO7tktw6T7/DK1Khba1ddJ8mWjMtJ0taBvz0Ba9izFrNz+k3sO5M7MZSPHlSrYvN/IDxr6FWxwSKgjiWq4//8zw5fxpP86lLKE3YxOa3D1oq46gba24aXwVY1HWVsGh2qM8o36RyIItzMu/h1vy5jGteKF0RaRfddjoW7jrV0gZQBwfnV55l1R33FI4n4C8ZSzPj2RH4eO8Xf4hOc35tHS1eN3fSYVBCiAxc5eXo/viIPo9L6BPjOX7xBh+TNrIFYfFcCUp2m7iue29i0kbGUiKwZIQg/7R3ejfegNtWhqaunqvD9REwT/m+221aKtPoct9Ed2pKMzHF/D3lBAupodwJWsWV7LFxcQzuZITbLeZttczQ/hHagj9p+aiPbIUXfputCUH0DSXoOlsuyn9be1qQ91SwvsVB9ie9yjzUsKZmX03AYVhBBSHMaN0Gf5ly/Arv8th4t8zSsIIUIcRmB9GSPpy7s+MZ0/RK5yoP01Ne+2k+Tr5MHT3oOnoRNPUjLakFO3Jkxj2f4D5xT1Ydu/EkhSHJep+zGtW2kxcOR+7Acv2zZifegLT669J/Qttdjba+no0rW1ouronbcDGDPqxMmx3F5rOVjTiR61NRVvyEca8ZzGlbcZ86l5MRxdg+jYI4ze+GL/xw3QkFPOJMMzJkTY5pHqNnopv0TSp0XQ0ounuRNPTc1P629PTQ0d3Jw2djRS2qPm65rC0f2in6nFWZW9kYfo9BKQs4tYzsyW7M3k+IWnLuDtzHXH5O3iqeC8fVH5MckMaNR11tHa10iXGb6yx9fDrkw+DswMCirp6SeLoUlPQHTmM7suD6D77GO2B/ZLpPj6AkEG6Q1+jO/kdEgTlFWiavZ82Pf4jdDShaS5FW5eKtupbtGWfoC1+D636TTSq1yXTFr0jAaMtP4i25js0jXlo2mrRdHVMWlB4wu+Org5pVhcS53j9ST6t/oL3K//KG+Xv8cfStyT7U9lfeKfiQw5UfcbXtUdIaUynpLWUps7mKfF1amFwBkN5PiUB4InA/7/yHT493T0opoyBEgM9KDAok4EyGdpjQIFBgUGBQYahu6sbxZQxUGKgW5FJilZW6iU5BhSZpMgkRSYpMkmRRoo0GhkDPl2dXSimjIESA10oMCiTgTIZ2mNAgUGBQYFBhqGzsxPFlDFQYqATH2UQFBCUGLDFgCKTFJmkyCRFJikZQckII2NAkUlKzaTUjPYY8Ons6EQxZQyUGBAFtAKDMhkoMSDFgAKDEgjKZGCPAQUGBQYFBhmGjvYOFFPGQImBDnyUQVBAUGLAFgMKDEpmVJSBPQb+B7XsyWDNsNejAAAAAElFTkSuQmCC;" parent="2" vertex="1">
                    <mxGeometry x="755" width="74.06" height="30" as="geometry"/>
                </mxCell>
            </root>
        </mxGraphModel>
    </diagram>
</mxfile>